<svg width="1233" height="266" viewBox="-5 -261 1233 266" fill="none" xmlns="http://www.w3.org/2000/svg">
  <g id="Veltis">
    <path id="V" d="M-4.31-10.66L25.84-19.28L111.56-255.12L142.73-249.37L229.89-18.46L256.96-10.66L258.40 4.92L165.09 4.92L163.65-10.66L200.98-19.28L135.35-198.72L71.16-18.46L106.03-10.66L108.08 4.92L-2.26 4.92" fill="black" />
    <path id="E" d="M273.57-15.59L310.90-24.20L310.90-230.30L276.65-239.94L275.01-255.12L483.16-255.12L489.32-190.93L472.29-188.26L452.20-235.43L350.68-235.43L350.68-135.56L406.88-135.56L413.85-171.45L431.28-168.78L438.25-89L418.77-91.87L410.16-116.48L350.68-116.48L350.68-18.87L447.28-18.87L455.68-62.96L473.53-65.62L479.88 0L275.83 0" fill="black" />
    <path id="L" d="M495.67-255.12L698.70-255.12L706.29-187.24L688.86-184.57L661.99-235.43L571.35-235.43L571.35-25.22L606.42-15.59L608.47 0L495.67 0L493.01-15.59L531.56-26.04L531.56-230.30L497.52-239.94" fill="black" />
    <path id="T" d="M706.90 0L708.54-66.04L727.21-68.70L738.08-18.87L798.57-18.87L798.57-230.30L763.92-239.94L762.48-255.12L873.02-255.12L875.89-238.71L837.95-231.74L837.95-18.87L900.50-18.87L908.29-66.24L927.77-69.32L934.75 0" fill="black" />
    <path id="I" d="M941.92-15.59L979.25-24.20L979.25-230.30L945-239.94L943.36-255.12L1054.10-255.12L1056.15-238.71L1019.03-231.74L1019.03-23.38L1053.69-15.59L1055.74 0L944.18 0" fill="black" />
    <path id="S" d="M1137.36-260.24Q1160.95-260.24 1181.97-250.50Q1202.99-240.76 1215.81-222.92Q1228.62-205.08 1228.62-182.11Q1228.62-165.70 1220.21-153.60Q1211.81-141.50 1199.71-133.20Q1187.61-124.89 1167.10-114.02Q1147.41-103.36 1136.03-95.77Q1124.65-88.18 1116.75-77.11Q1108.86-66.04 1108.86-51.27Q1108.86-31.99 1119.32-22.15Q1129.78-12.30 1146.18-12.30Q1153.77-12.30 1161.15-15.48Q1168.54-18.66 1173.76-23.28Q1178.99-27.89 1181.04-31.79L1186.17-70.96L1206.47-73.42Q1207.09-64.60 1208.73-44.91Q1210.37-25.22 1210.99-15.59Q1186.38 4.92 1153.15 4.92Q1132.44 4.92 1114.19-3.69Q1095.94-12.30 1084.66-28.71Q1073.38-45.12 1073.38-67.47Q1073.38-86.75 1082.71-100.90Q1092.04-115.05 1105.27-124.17Q1118.50-133.30 1140.03-144.79Q1157.46-154.22 1167.41-160.78Q1177.35-167.34 1184.12-176.26Q1190.89-185.19 1190.89-196.46Q1190.89-210.82 1183.61-220.46Q1176.33-230.10 1165.15-234.81Q1153.97-239.53 1142.29-239.53Q1128.75-239.53 1117.37-233.58Q1105.99-227.64 1100.04-219.02L1092.04-180.47L1071.12-177.60L1068.46-236.46Q1078.92-246.71 1097.48-253.48Q1116.04-260.24 1137.36-260.24" fill="black" />
  </g>
</svg>